# xmcd
#
# Track frame offsets:
#	150
#	36142
#	63029
#	105939
#	177292
#	200333
#	230469
#	251491
#	294428
#	315640
#
# Disc length: 4415 seconds
#
# Revision: 0
# Processed by: cddbd v1.5.2PL0 Copyright (c) Steve Scherf et al.
# Submitted via: audiograbber 1.83.01
#
DISCID=7c113d0a
DTITLE=Grateful Dead - 92-06-14 Giants Stadium, East Rutherford NJ
DYEAR=1900
DGENRE=
TTITLE0=Ship Of Fools
TTITLE1=Long Way To Go Home
TTITLE2=Corrina
TTITLE3=Drums
TTITLE4=Space
TTITLE5=Spoonful
TTITLE6=The Other One
TTITLE7=Morning Dew
TTITLE8=Baba O'Riley
TTITLE9=Tomorrow Never Knows
EXTD=
EXTT0=
EXTT1=
EXTT2=
EXTT3=
EXTT4=
EXTT5=
EXTT6=
EXTT7=
EXTT8=
EXTT9=
PLAYORDER=
